<?xml version="1.0" standalone="no"?>
<!DOCTYPE svg PUBLIC "-//W3C//DTD SVG 20010904//EN"
 "http://www.w3.org/TR/2001/REC-SVG-20010904/DTD/svg10.dtd">
<svg version="1.0" xmlns="http://www.w3.org/2000/svg"
 width="1080.000000pt" height="1080.000000pt" viewBox="0 0 1080.000000 1080.000000"
 preserveAspectRatio="xMidYMid meet">
<metadata>
Created by potrace 1.16, written by Peter Selinger 2001-2019
</metadata>
<g transform="translate(0.000000,1080.000000) scale(0.100000,-0.100000)"
fill="#000000" stroke="none">
<path d="M0 5400 l0 -5400 5280 0 5280 0 0 40 0 40 40 0 40 0 0 40 0 40 40 0
40 0 0 40 0 40 40 0 40 0 0 5280 0 5280 -5400 0 -5400 0 0 -5400z m2847 4760
c18 -10 39 -32 46 -47 8 -15 27 -125 42 -243 15 -118 30 -218 34 -222 3 -4
439 -9 968 -10 l962 -3 12 22 c19 36 81 73 121 73 35 0 912 -164 945 -177 42
-16 93 -88 93 -131 0 -31 -100 -555 -112 -585 -14 -36 -69 -83 -106 -92 -26
-5 -236 26 -276 41 -6 2 -66 -36 -132 -86 -65 -49 -126 -90 -134 -90 -9 0 -23
12 -32 28 -17 26 -17 -29 -18 -1020 l0 -1048 40 -42 c61 -64 165 -204 260
-347 318 -484 641 -1245 790 -1856 17 -71 34 -138 36 -147 4 -14 19 -18 80
-20 l75 -3 91 -227 c50 -126 94 -228 98 -228 8 0 22 30 100 230 33 85 68 172
77 193 l16 37 104 0 103 0 0 -350 0 -350 -90 0 -90 0 -2 192 -3 192 -71 -189
-71 -190 -74 -3 -74 -3 -19 53 c-91 259 -121 331 -126 308 -3 -14 -5 -100 -3
-193 3 -162 3 -167 -17 -167 -21 0 -21 1 -39 -113 -7 -37 -23 -93 -36 -124
-14 -30 -25 -57 -25 -58 0 -2 75 -5 168 -7 159 -4 170 -5 220 -31 64 -34 129
-98 153 -152 84 -189 5 -417 -169 -487 -51 -20 -77 -23 -244 -26 l-188 -3 0
330 0 330 -31 -11 c-83 -29 -216 38 -373 186 -41 38 -51 44 -68 35 -17 -9 -18
-8 -9 9 10 18 8 19 -23 12 -19 -4 -39 -11 -45 -15 -7 -4 -44 0 -84 8 -40 9
-128 18 -197 21 -69 2 -138 10 -155 16 -43 16 -465 27 -465 12 0 -14 -106 -17
-114 -3 -3 5 11 12 32 16 31 6 34 9 17 15 -28 12 -43 12 -25 0 21 -14 -48 -13
-88 1 -22 7 -36 7 -51 0 -13 -8 -34 -8 -61 -2 -22 5 -40 6 -40 2 0 -4 42 -15
93 -24 50 -10 133 -26 182 -37 80 -18 123 -26 175 -34 9 -1 20 -5 26 -9 6 -3
34 -9 61 -11 28 -3 62 -10 77 -16 15 -5 40 -11 56 -12 l30 -2 0 -494 c0 -310
-4 -520 -11 -564 -28 -180 -178 -330 -364 -364 -93 -17 -3101 -20 -3221 -3
-143 20 -267 103 -334 223 -60 110 -59 84 -60 1482 l0 1272 -22 6 c-13 3 -48
24 -78 47 -30 23 -82 61 -115 84 l-61 43 -104 -24 c-127 -28 -174 -29 -220 -6
-62 31 -71 57 -139 384 l-64 306 22 46 c23 47 65 80 116 90 203 39 563 120
572 128 7 6 20 8 28 4 8 -3 15 0 15 6 0 7 -13 9 -34 5 l-33 -5 -6 146 c-11
301 -8 2948 4 3019 6 37 12 75 13 84 5 44 78 168 126 214 29 28 59 58 68 67 9
10 36 20 60 24 33 5 42 10 37 21 -3 11 -1 13 10 9 51 -21 51 -21 31 2 l-19 22
46 -6 c38 -5 48 -4 53 10 8 20 34 21 34 1 0 -18 20 -19 53 -4 37 17 255 -5
272 -27 10 -15 11 -12 8 17 -2 19 -6 45 -9 58 l-5 23 -172 -5 c-95 -4 -188 -9
-207 -13 -19 -4 -32 -4 -29 0 14 15 176 36 287 36 96 0 122 3 122 14 0 7 -9
80 -20 162 -23 169 -19 199 33 238 29 22 70 29 407 74 435 57 463 59 507 32z
m3481 -4383 l3 -47 49 0 49 0 3 48 c2 34 7 47 18 47 12 0 16 -20 18 -112 3
-108 2 -113 -18 -113 -17 0 -20 6 -20 50 l0 50 -50 0 -50 0 0 -50 c0 -43 -3
-50 -20 -50 -19 0 -20 7 -20 108 0 60 3 112 7 116 16 15 28 -3 31 -47z m454
-56 c21 -57 38 -108 38 -113 0 -19 -31 -6 -40 17 -8 22 -16 25 -55 25 -39 0
-47 -3 -55 -25 -9 -23 -40 -36 -40 -17 0 7 38 115 69 195 20 51 41 30 83 -82z
m312 99 c15 -5 31 -21 37 -34 24 -52 -13 -96 -81 -96 -29 0 -30 -2 -30 -45 0
-38 -3 -45 -20 -45 -19 0 -20 7 -20 108 0 60 3 112 7 115 10 10 78 8 107 -3z
m336 -15 c23 -21 26 -63 7 -89 -8 -11 -31 -20 -60 -23 l-47 -6 0 -43 c0 -32
-4 -44 -15 -44 -12 0 -15 20 -15 116 l0 116 55 -4 c34 -3 62 -12 75 -23z m841
-574 c30 -31 36 -61 19 -105 -12 -33 -45 -49 -98 -48 -71 1 -113 54 -92 118
15 45 45 64 98 64 35 0 49 -6 73 -29z m939 -401 l0 -371 -87 3 -88 3 -3 368
-2 367 90 0 90 0 0 -370z m-2529 328 c77 -23 149 -106 149 -173 0 -25 0 -25
-90 -25 -87 0 -91 1 -100 24 -26 70 -140 57 -140 -16 0 -34 34 -58 130 -89 91
-30 130 -52 170 -94 34 -35 35 -39 35 -114 0 -100 -27 -146 -108 -186 -172
-83 -381 -6 -413 153 l-6 32 95 0 c93 0 95 -1 101 -25 7 -26 51 -55 86 -55 26
0 70 43 70 68 0 30 -41 60 -119 87 -164 58 -205 90 -222 176 -21 100 17 175
113 223 43 21 66 26 131 26 44 0 97 -5 118 -12z m638 -163 c103 -52 159 -159
148 -282 -8 -83 -34 -139 -85 -185 -64 -58 -104 -71 -207 -72 -78 0 -97 3
-140 26 -93 49 -138 122 -144 237 -4 86 10 140 49 195 81 109 252 146 379 81z
m586 6 c69 -31 128 -100 136 -161 4 -25 3 -25 -71 -28 -90 -4 -117 2 -125 27
-8 25 -55 44 -88 35 -15 -3 -38 -20 -52 -36 -21 -25 -25 -40 -25 -95 0 -72 18
-114 57 -132 40 -18 69 -13 101 20 30 31 32 32 119 30 48 -1 89 -3 90 -5 6 -6
-29 -80 -53 -111 -85 -112 -297 -126 -406 -27 -59 53 -81 103 -86 198 -9 163
61 268 203 305 49 13 148 3 200 -20z m767 14 c25 -9 55 -25 67 -36 l21 -20 0
31 0 30 90 0 90 0 0 -280 0 -280 -90 0 c-89 0 -90 0 -90 25 0 26 -14 33 -26
14 -12 -21 -89 -49 -133 -49 -71 0 -122 20 -172 70 -57 57 -79 118 -79 220 0
103 22 163 80 221 66 66 150 85 242 54z m-384 -277 l2 -278 -90 0 -90 0 0 280
0 281 88 -3 87 -3 3 -277z m343 -507 c75 -76 -5 -181 -115 -150 -65 18 -86 94
-40 148 22 27 32 31 76 31 41 0 54 -5 79 -29z m-261 -401 l0 -370 -85 0 c-49
0 -86 4 -86 10 -1 6 -2 16 -3 23 -2 14 -25 11 -46 -8 -28 -24 -92 -38 -150
-32 -97 8 -169 69 -203 171 -19 55 -22 162 -7 216 17 62 65 126 117 157 40 24
59 28 119 28 62 0 77 -4 122 -32 l52 -32 0 119 0 120 85 0 85 0 0 -370z m-778
176 c51 -22 105 -71 130 -120 26 -51 38 -186 17 -187 -8 0 -92 -1 -187 -1
-187 -1 -198 -4 -172 -53 29 -54 119 -66 155 -21 20 25 26 26 114 26 91 0 92
0 85 -22 -22 -75 -86 -137 -164 -163 -75 -25 -184 -16 -245 19 -96 57 -141
152 -133 282 9 137 78 222 205 254 50 12 149 5 195 -14z m1488 -16 l40 -32 0
31 0 31 90 0 90 0 0 -278 c0 -153 -2 -281 -4 -283 -2 -2 -43 -3 -90 -1 l-86 3
0 30 c0 29 -1 29 -17 13 -31 -31 -96 -54 -154 -54 -114 0 -198 70 -234 195
-37 126 9 280 102 342 61 40 73 43 156 38 58 -3 74 -9 107 -35z m-440 -249 l0
-280 -85 -3 -85 -3 0 283 0 282 85 0 85 0 0 -279z m-1273 -750 l43 -31 0 30 0
30 90 0 89 0 3 -280 3 -280 -92 0 c-92 0 -93 0 -93 25 0 26 -14 33 -26 14 -13
-21 -89 -49 -135 -49 -95 0 -176 49 -222 135 -19 34 -22 56 -22 150 0 97 3
116 24 157 31 61 66 94 127 119 71 28 153 21 211 -20z m853 -72 c-22 -52 -45
-103 -50 -114 -8 -18 -208 -492 -243 -577 l-16 -38 -95 0 c-53 0 -96 2 -96 5
0 8 87 203 106 237 21 38 18 58 -21 145 -19 43 -66 155 -105 248 -39 94 -74
176 -77 183 -4 9 19 12 95 12 l99 0 35 -92 c20 -51 48 -126 63 -166 15 -40 29
-71 31 -69 3 2 30 76 62 163 l57 159 90 5 c50 3 93 2 98 -1 4 -3 -11 -48 -33
-100z m-268 -926 c25 -30 29 -54 14 -78 -13 -20 -13 -25 -1 -35 21 -17 19 -74
-2 -92 -55 -47 -153 -17 -153 46 0 22 49 21 65 -1 7 -10 19 -14 29 -10 23 9
15 30 -13 37 -12 3 -22 8 -22 13 1 4 1 16 1 27 0 13 7 20 20 20 11 0 20 6 20
14 0 23 -22 31 -32 12 -10 -17 -53 -22 -63 -6 -7 11 12 51 29 62 22 15 92 9
108 -9z m328 7 c55 -29 50 -207 -7 -223 -45 -14 -82 -11 -102 7 -46 42 -51
147 -10 200 16 20 29 26 60 26 22 0 49 -4 59 -10z m-1850 -97 c0 -54 -4 -104
-8 -111 -11 -17 -63 -31 -94 -25 -24 5 -38 23 -52 66 -4 14 1 17 28 17 21 0
36 -6 40 -15 3 -8 10 -15 16 -15 6 0 10 35 10 90 l0 90 30 0 30 0 0 -97z m230
18 c0 -86 15 -115 48 -94 13 8 18 29 20 92 l3 81 30 0 30 0 -3 -96 c-3 -93 -4
-98 -31 -118 -41 -30 -104 -27 -134 8 -20 24 -23 38 -23 117 l0 89 30 0 30 0
0 -79z m398 9 l42 -64 0 67 0 67 30 0 30 0 0 -115 0 -115 -32 0 c-29 0 -37 7
-72 60 -21 33 -40 60 -41 60 -2 0 -3 -27 -2 -59 l2 -59 -32 -4 -33 -4 0 119 0
118 33 -3 c27 -3 38 -13 75 -68z m410 43 c3 -19 -2 -22 -40 -25 -31 -2 -44 -8
-46 -20 -3 -15 4 -18 37 -18 37 0 41 -3 41 -24 0 -21 -5 -25 -37 -28 -26 -2
-39 -8 -41 -20 -3 -13 6 -17 40 -20 36 -2 44 -7 46 -25 3 -22 0 -23 -72 -23
l-76 0 0 115 0 116 73 -3 c65 -3 72 -5 75 -25z m-1466 -559 c76 -22 147 -84
185 -162 39 -79 39 -183 2 -262 -30 -63 -86 -122 -144 -153 l-40 -22 -2355 0
-2355 0 -40 22 c-55 29 -112 88 -143 148 -36 68 -37 186 -4 260 26 56 81 118
127 143 80 42 4 41 2409 41 2107 1 2305 0 2358 -15z"/>
<path d="M2970 9590 c0 -38 -15 -69 -44 -92 -20 -17 28 -18 946 -18 531 0 973
-3 981 -6 11 -4 17 10 27 61 7 36 9 69 5 73 -3 4 -436 8 -961 10 l-954 2 0
-30z"/>
<path d="M5538 5205 c-3 -3 -97 -28 -209 -55 -311 -76 -292 -67 -269 -122 5
-13 27 -72 49 -133 54 -150 138 -356 150 -368 10 -10 469 215 483 237 35 52
-56 321 -138 411 -29 32 -53 43 -66 30z"/>
<path d="M3160 4714 c0 -8 -4 -12 -10 -9 -6 3 -10 -4 -10 -17 0 -13 -4 -18 -8
-13 -13 18 -41 14 -37 -6 4 -18 -30 -38 -42 -25 -4 3 -13 -3 -21 -15 -10 -15
-17 -17 -27 -9 -8 7 -15 7 -19 1 -3 -5 0 -12 6 -15 7 -3 4 -4 -8 -3 -23 2 -54
-19 -54 -37 0 -6 9 0 20 14 11 14 20 20 20 13 0 -7 -15 -23 -33 -37 -28 -21
-37 -38 -50 -95 -21 -85 -21 -149 -2 -271 37 -230 141 -454 283 -610 l50 -55
-59 -12 c-32 -6 -64 -15 -70 -18 -6 -4 -43 -15 -82 -25 -87 -22 -272 -88 -347
-124 -29 -14 -59 -26 -64 -26 -6 0 -22 -9 -36 -20 -14 -11 -36 -20 -50 -20
-20 0 -22 -2 -10 -10 12 -8 9 -10 -13 -10 -15 0 -46 -9 -70 -19 -23 -11 -59
-25 -79 -32 -26 -9 -34 -16 -25 -22 7 -5 -2 -5 -22 -2 -23 5 -31 4 -27 -4 4
-6 0 -11 -9 -11 -22 0 -86 -30 -81 -39 2 -3 -20 -7 -50 -8 -30 -1 -54 1 -54 5
0 5 -17 14 -37 21 -42 16 -132 96 -174 157 -129 187 -191 460 -144 634 18 69
18 82 0 50 -46 -79 -59 -241 -31 -370 45 -206 152 -382 286 -469 53 -35 58
-36 150 -36 85 1 106 5 200 39 79 29 123 39 176 41 39 1 75 5 81 8 23 14 30 0
183 -378 56 -137 110 -272 120 -300 50 -136 231 -570 242 -581 11 -11 36 -7
138 22 119 34 128 38 178 87 29 29 57 60 63 70 8 14 -20 94 -135 380 -164 412
-216 544 -216 553 0 3 -6 20 -14 37 -40 94 -40 94 2 46 22 -24 54 -60 72 -79
32 -36 64 -87 65 -105 0 -12 24 -14 26 -2 1 4 -1 67 -5 140 -8 158 4 217 55
275 49 55 84 77 171 106 131 43 285 53 483 31 129 -15 287 -38 320 -46 46 -12
101 -21 70 -13 -11 4 -25 10 -32 16 -6 5 -37 12 -68 15 -38 4 -52 9 -43 15 9
7 7 8 -7 4 -27 -8 -307 31 -415 58 -30 7 -79 12 -108 12 -38 -1 -51 2 -47 12
3 9 0 10 -15 2 -25 -13 -43 -13 -34 2 5 7 3 8 -5 3 -8 -4 -29 6 -54 26 -38 30
-55 48 -120 123 -58 66 -145 234 -198 381 -57 160 -72 245 -74 432 -1 112 2
170 8 166 6 -3 7 -1 3 5 -10 17 -26 15 -26 -4z"/>
<path d="M2331 4487 l-103 -42 5 -69 c4 -37 8 -70 10 -72 6 -6 287 114 287
123 0 8 -83 103 -89 103 -3 -1 -53 -20 -110 -43z"/>
<path d="M6510 2811 l0 -201 63 0 c108 1 172 43 202 137 14 43 15 61 6 104
-24 112 -70 150 -193 157 l-78 5 0 -202z"/>
<path d="M7160 4873 c-33 -10 -62 -28 -72 -47 -35 -65 -27 -144 18 -193 21
-22 35 -28 70 -28 36 0 49 6 76 33 31 30 33 37 33 102 0 61 -3 73 -25 95 -27
27 -75 45 -100 38z"/>
<path d="M8563 4833 c-34 -35 -35 -39 -31 -99 4 -70 22 -98 74 -120 40 -17 91
-4 124 31 19 20 25 40 28 89 4 62 3 64 -32 100 -32 31 -43 36 -83 36 -40 0
-50 -5 -80 -37z"/>
<path d="M8022 3857 c-38 -22 -62 -67 -62 -117 0 -57 27 -101 75 -124 35 -17
40 -17 80 -2 58 23 79 63 73 140 -4 44 -11 63 -30 83 -31 30 -101 41 -136 20z"/>
<path d="M8940 3853 c-32 -22 -38 -30 -50 -76 -22 -79 34 -167 107 -167 93 0
151 103 108 194 -29 60 -112 85 -165 49z"/>
<path d="M7215 2835 c-30 -31 -35 -42 -35 -84 0 -95 38 -141 115 -141 47 0 68
12 94 54 38 61 17 165 -39 193 -48 24 -96 16 -135 -22z"/>
</g>
</svg>
